<?xml version="1.0" standalone="no"?>
<!DOCTYPE svg PUBLIC "-//W3C//DTD SVG 20010904//EN"
 "http://www.w3.org/TR/2001/REC-SVG-20010904/DTD/svg10.dtd">
<svg version="1.0" xmlns="http://www.w3.org/2000/svg"
 width="360.000000pt" height="360.000000pt" viewBox="0 0 360.000000 360.000000"
 preserveAspectRatio="xMidYMid meet">

<g transform="translate(0.000000,360.000000) scale(0.100000,-0.100000)"
fill="#000000" stroke="none">
<path d="M0 1800 l0 -1800 1800 0 1800 0 0 1800 0 1800 -1800 0 -1800 0 0
-1800z m1630 834 l0 -167 54 6 c133 14 249 126 277 270 l12 57 401 0 c299 0
405 -3 414 -12 9 -9 12 -123 12 -450 l0 -438 -166 0 -167 0 5 -49 c13 -134
141 -262 279 -278 l49 -6 0 -371 c0 -276 -3 -375 -12 -384 -9 -9 -115 -12
-414 -12 l-401 0 -12 58 c-14 73 -58 150 -112 196 -48 41 -133 76 -184 76
l-35 0 0 -165 0 -165 -403 0 c-300 0 -406 3 -415 12 -17 17 -17 1959 0 1976 9
9 115 12 415 12 l403 0 0 -166z"/>
</g>
</svg>
