<svg aria-labelledby="header-logo" height="42" role="img" viewBox="0 0 350 44" width="338" xmlns="http://www.w3.org/2000/svg">
<title id="header-logo">Kumospace</title>
<path d="M43.412 19.777h-7.25c0 2.019.81 3.843 2.121 5.166a7.202 7.202 0 0 0 5.126 2.137v15.866c0 .511-.412.927-.919.927H25.327c0-2.02-.81-3.843-2.12-5.166a7.197 7.197 0 0 0-5.125-2.138v7.306H.92A.924.924 0 0 1 0 42.949V1.05C0 .541.412.125.92.125h17.162v7.306a7.197 7.197 0 0 0 5.124-2.138A7.315 7.315 0 0 0 25.327.127h17.166c.506 0 .919.416.919.927v18.725-.002ZM65.159 36.826V7.191h7.203v11.436h.591L84.451 7.19h9.522L79.17 21.71l15.097 15.115H84.35L72.953 24.844h-.591v11.982h-7.203ZM94.962 7.19h7.203v17.503c0 4.674 2.123 6.712 7.154 6.712s7.153-2.038 7.153-6.712V7.191h7.203v17.502c0 8.453-5.082 12.979-14.359 12.979-9.276 0-14.359-4.575-14.359-12.979V7.191h.005ZM126.859 36.826V7.191h12.779l5.38 23.022 5.377-23.022h12.778v29.635h-7.104v-23.52h-.592l-5.772 23.52h-9.375l-5.772-23.52h-.591v23.52H126.859ZM182.489 6.356c9.72 0 16.629 6.515 16.629 15.712 0 9.198-6.958 15.712-16.629 15.712-9.672 0-16.578-6.514-16.578-15.712 0-9.197 6.908-15.712 16.578-15.712Zm0 25.06c5.673 0 9.276-3.63 9.276-9.348 0-5.718-3.603-9.348-9.276-9.348-5.674 0-9.228 3.68-9.228 9.348 0 5.668 3.603 9.348 9.228 9.348ZM207.924 24.992c.445 4.476 3.159 6.465 8.585 6.465 4.736 0 6.71-.994 6.71-2.933 0-1.442-.692-2.189-3.355-2.686l-9.424-1.741c-5.772-1.044-9.178-3.878-9.178-8.503 0-5.767 5.377-9.299 13.765-9.299 8.933 0 14.455 4.526 14.95 12.034h-7.35c-.346-3.927-2.812-5.767-7.598-5.767-4.785 0-6.464 1.044-6.513 2.933.049 1.393.839 2.038 3.207 2.486l9.574 1.74c6.069 1.045 9.227 3.928 9.227 8.602 0 5.968-5.33 9.398-14.013 9.398-9.571 0-15.345-4.674-15.986-12.729h7.402-.003ZM233.014 36.826V7.191h17.12c6.761 0 10.362 3.032 10.362 9 0 5.967-3.601 9-10.362 9h-9.917v11.586h-7.203v.05Zm7.203-17.752h9.966c2.123 0 3.011-.895 3.011-2.834s-.937-2.834-3.011-2.834h-9.966v5.668ZM255.759 36.826 268.39 7.191h9.92l12.631 29.635h-7.845l-3.159-7.956h-13.174l-3.158 7.956h-7.846Zm13.373-13.973h8.437l-3.897-9.796h-.594l-3.946 9.796ZM305.913 6.295c9.326 0 15.741 5.47 16.531 13.872h-7.451c-.542-4.773-3.75-7.508-9.08-7.508-5.625 0-9.225 3.68-9.225 9.348 0 5.668 3.6 9.348 9.225 9.348s8.685-2.834 9.178-7.807h7.353c-.643 8.552-7.105 14.17-16.531 14.17-9.426 0-16.578-6.513-16.578-15.71-.049-9.2 6.909-15.713 16.578-15.713ZM325.081 36.826V7.191h24.769v6.215h-17.613v5.072h17.169v6.215h-17.169v5.968H350v6.215h-24.919v-.05Z"></path>
</svg>